# xmcd CD database file
#
# Track frame offsets:
#	150
#	14570
#	24829
#	37349
#	49837
#	60630
#	111228
#	132501
#	149046
#	160599
#	173687
#	185734
#	199716
#	209416
#	220485
#	231169
#	244497
#	252277
#	270360
#	285867
#	297744
#	313732
#	322556
#
# Disc length: 4538 seconds
#
# Revision: 7
# Processed by: cddbd v1.5.2PL0 Copyright (c) Steve Scherf et al.
# Submitted via: CDex 1.51
#
DISCID=6511b817
DTITLE=Various Artist - Laudate Pueri Dominum  (Georg Ratzinger, Regensburger Domspatzen)
DYEAR=2005
DGENRE=Classique
TTITLE0=Karl Ditters von Dittersdorf (1739-1799) - Kyrie
TTITLE1=Orlando di Lasso (1532-1894) - Omnes de Saba
TTITLE2=Giovanni Pierluigi da Palestina (1525-1594) - Sicut cervus desiderat
TTITLE3=Giovanni Croce (1557-1609) - Laudate Dominum
TTITLE4=Franesco Durante (1684-1755) - Misericordias Domini
TTITLE5=Hans Leo Hassler (1564-1612) - Lauretanische Litanei
TTITLE6=Karl Ditters von Dittersdorf (1739-1799) - Regina Angelorum
TTITLE7=Felix Mendelssohn Bartholdy (1809-1847) - Laudate pueri Dominum Op.39/2
TTITLE8=Felix Mendelssohn Bartholdy (1809-1847) - Terzett: Beati omnes
TTITLE9=Franz Schubert (1797-1828) - Deutsche Messe - Zum Eingang
TTITLE10=Franz Schubert (1797-1828) - Deutsche Messe - Zum Gloria
TTITLE11=Franz Schubert (1797-1828) - Deutsche Messe - Zum Evangelium/Credo
TTITLE12=Franz Schubert (1797-1828) - Deutsche Messe - Zum Offertorium
TTITLE13=Franz Schubert (1797-1828) - Deutsche Messe - Zum Sanctus
TTITLE14=Franz Schubert (1797-1828) - Deutsche Messe - Nach Der Wandlung
TTITLE15=Franz Schubert (1797-1828) - Deutsche Messe - Zum Agnus Die
TTITLE16=Franz Schubert (1797-1828) - Deutsche Messe - Schlussgesang
TTITLE17=Franz Schubert (1797-1828) - Deutsche Messe - Anhang: Das Gebet Des Herrn
TTITLE18=Joseph Rheinberger (1839-1901) - Salve Regina
TTITLE19=Joseph Rheinberger (1839-1901) - Dextera Domini
TTITLE20=Johannes Brahms (1833-1897) - Der englische Gruﬂ
TTITLE21=Johannes Brahms (1833-1897) - Marias Lob
TTITLE22=Karl Ditters von Dittersdorf (1739-1799) - Vos Ergo
EXTD=YEAR: 2005
EXTT0=
EXTT1=
EXTT2=
EXTT3=
EXTT4=
EXTT5=
EXTT6=
EXTT7=
EXTT8=
EXTT9=
EXTT10=
EXTT11=
EXTT12=
EXTT13=
EXTT14=
EXTT15=
EXTT16=
EXTT17=
EXTT18=
EXTT19=
EXTT20=
EXTT21=
EXTT22=
PLAYORDER=
